<svg width="48" height="48" viewBox="0 0 48 48" fill="none" xmlns="http://www.w3.org/2000/svg">
<path d="M21 25C22.1046 25 23 25.8954 23 27V39C23 40.1046 22.1046 41 21 41H9C7.89543 41 7 40.1046 7 39V27C7 25.8954 7.89543 25 9 25H21ZM39 25C40.1046 25 41 25.8954 41 27V39C41 40.1046 40.1046 41 39 41H27C25.8954 41 25 40.1046 25 39V27C25 25.8954 25.8954 25 27 25H39ZM11 37H19V29H11V37ZM29 37H37V29H29V37ZM21 7C22.1046 7 23 7.89543 23 9V21C23 22.1046 22.1046 23 21 23H9C7.89543 23 7 22.1046 7 21V9C7 7.89543 7.89543 7 9 7H21ZM33 7C37.4183 7 41 10.5817 41 15C41 19.4183 37.4183 23 33 23C28.5817 23 25 19.4183 25 15C25 10.5817 28.5817 7 33 7ZM11 19H19V11H11V19ZM33 11C30.7909 11 29 12.7909 29 15C29 17.2091 30.7909 19 33 19C35.2091 19 37 17.2091 37 15C37 12.7909 35.2091 11 33 11Z" fill="black" style="fill:black;fill-opacity:1;"/>
</svg>
